<svg width="126" height="75" viewBox="0 0 126 75" fill="none" xmlns="http://www.w3.org/2000/svg">
<path d="M75.086 24.848L72.018 40.2735H67.7747L68.0615 38.7539C66.7808 39.9199 65.2038 40.5029 63.3306 40.5029C62.1264 40.5029 61.0177 40.2257 60.0047 39.6714C58.9916 39.1171 58.1792 38.3238 57.5675 37.2916C56.975 36.2403 56.6787 35.0074 56.6787 33.593C56.6787 31.8918 57.0514 30.3626 57.7969 29.0055C58.5615 27.6292 59.5937 26.5588 60.8935 25.7942C62.1933 25.0105 63.6269 24.6187 65.1943 24.6187C67.5645 24.6187 69.237 25.3928 70.212 26.9411L70.613 24.848H75.086ZM64.7068 36.8042C65.5861 36.8042 66.3698 36.594 67.0579 36.1734C67.7461 35.7338 68.2813 35.1317 68.6636 34.3671C69.046 33.6025 69.237 32.7233 69.237 31.7293C69.237 30.678 68.9216 29.8465 68.2908 29.2348C67.6792 28.6232 66.819 28.3173 65.7104 28.3173C64.8311 28.3173 64.0474 28.5372 63.3593 28.9768C62.6711 29.3973 62.1359 29.9899 61.7536 30.7544C61.3713 31.519 61.1802 32.3983 61.1802 33.3923C61.1802 34.4436 61.486 35.2751 62.0977 35.8867C62.7285 36.4984 63.5982 36.8042 64.7068 36.8042Z" fill="#43BCCD"/>
<path d="M80.632 40.5029C79.294 40.5029 78.023 40.3595 76.819 40.0728C75.634 39.767 74.707 39.3751 74.038 38.8973L75.758 35.6573C76.427 36.097 77.239 36.4506 78.195 36.7182C79.17 36.9858 80.145 37.1196 81.119 37.1196C82.133 37.1196 82.888 36.9954 83.385 36.7469C83.882 36.4793 84.13 36.1065 84.13 35.6287C84.13 35.2464 83.91 34.9692 83.471 34.7972C83.031 34.6252 82.324 34.4436 81.349 34.2524C80.24 34.0422 79.323 33.8128 78.596 33.5643C77.889 33.3158 77.268 32.9144 76.733 32.3601C76.217 31.7866 75.959 31.0125 75.959 30.0376C75.959 28.3364 76.666 27.008 78.08 26.0523C79.514 25.0965 81.387 24.6187 83.7 24.6187C84.77 24.6187 85.812 24.7333 86.825 24.9627C87.838 25.1921 88.698 25.5075 89.406 25.9089L87.8 29.1775C86.538 28.3938 85.019 28.0019 83.241 28.0019C82.266 28.0019 81.521 28.1453 81.005 28.432C80.508 28.7187 80.259 29.0819 80.259 29.5216C80.259 29.923 80.479 30.2192 80.919 30.4104C81.358 30.5824 82.094 30.7736 83.127 30.9838C84.216 31.1941 85.105 31.4235 85.793 31.6719C86.5 31.9013 87.112 32.2932 87.628 32.8475C88.144 33.4018 88.402 34.1568 88.402 35.1126C88.402 36.8329 87.676 38.1614 86.223 39.098C84.79 40.0346 82.926 40.5029 80.632 40.5029Z" fill="#43BCCD"/>
<path d="M100.595 31.5573L105.899 40.2735H100.71L97.04 34.2811L94.316 36.5462L93.57 40.2735H89.097L93.341 18.999H97.814L95.434 30.8978L102.831 24.848H108.652L100.595 31.5573Z" fill="#43BCCD"/>
<path d="M50.0842 15.9024V8.73438C50.0842 5.56737 52.6516 3 55.8186 3H117.463C120.63 3 123.198 5.56737 123.198 8.73438V48.8751C123.198 52.0421 120.63 54.6094 117.463 54.6094H107.428L110.782 70.2603C111.075 71.6282 109.436 72.563 108.408 71.6141L93.092 57.4766H55.8186C52.6516 57.4766 50.0842 54.9093 50.0842 51.7422V48.8751" stroke="#43BCCD" stroke-width="4.30079"/>
<path d="M5.852 19.28V40H1.932V19.28H5.852ZM11.713 22.64C11.0223 22.64 10.4436 22.4253 9.97697 21.996C9.52897 21.548 9.30497 20.9973 9.30497 20.344C9.30497 19.6907 9.52897 19.1493 9.97697 18.72C10.4436 18.272 11.0223 18.048 11.713 18.048C12.4036 18.048 12.973 18.272 13.421 18.72C13.8876 19.1493 14.121 19.6907 14.121 20.344C14.121 20.9973 13.8876 21.548 13.421 21.996C12.973 22.4253 12.4036 22.64 11.713 22.64ZM13.645 24.488V40H9.72497V24.488H13.645ZM23.9859 36.388L27.9059 24.488H32.0779L26.3379 40H21.5779L15.8659 24.488H20.0659L23.9859 36.388ZM48.6997 31.908C48.6997 32.468 48.6623 32.972 48.5877 33.42H37.2477C37.341 34.54 37.733 35.4173 38.4237 36.052C39.1143 36.6867 39.9637 37.004 40.9717 37.004C42.4277 37.004 43.4637 36.3787 44.0797 35.128H48.3077C47.8597 36.6213 47.001 37.8533 45.7317 38.824C44.4623 39.776 42.9037 40.252 41.0557 40.252C39.5623 40.252 38.2183 39.9253 37.0237 39.272C35.8477 38.6 34.9237 37.6573 34.2517 36.444C33.5983 35.2307 33.2717 33.8307 33.2717 32.244C33.2717 30.6387 33.5983 29.2293 34.2517 28.016C34.905 26.8027 35.8197 25.8693 36.9957 25.216C38.1717 24.5627 39.525 24.236 41.0557 24.236C42.5303 24.236 43.8463 24.5533 45.0037 25.188C46.1797 25.8227 47.085 26.728 47.7197 27.904C48.373 29.0613 48.6997 30.396 48.6997 31.908ZM44.6397 30.788C44.621 29.78 44.257 28.9773 43.5477 28.38C42.8383 27.764 41.9703 27.456 40.9437 27.456C39.973 27.456 39.1517 27.7547 38.4797 28.352C37.8263 28.9307 37.425 29.7427 37.2757 30.788H44.6397Z" fill="#565656"/>
</svg>
